<mxfile host="app.diagrams.net" modified="2023-07-11T06:14:08.613Z" agent="Mozilla/5.0 (Windows NT 10.0; Win64; x64) AppleWebKit/537.36 (KHTML, like Gecko) Chrome/114.0.0.0 Safari/537.36" etag="OAutkWdU-uvTW5r3eOAj" version="21.5.2" type="device">
  <diagram name="Page-1" id="siM84mI0EuLIikg5BG_J">
    <mxGraphModel dx="1434" dy="764" grid="1" gridSize="10" guides="1" tooltips="1" connect="1" arrows="1" fold="1" page="1" pageScale="1" pageWidth="1654" pageHeight="1169" math="0" shadow="0">
      <root>
        <mxCell id="0" />
        <mxCell id="1" parent="0" />
        <mxCell id="Ka3H7soA-u5DSd5FnXOm-1" value="&lt;span style=&quot;font-size:10.5pt;font-family:&amp;quot;Microsoft JhengHei&amp;quot;,sans-serif;&lt;br/&gt;mso-ascii-font-family:Arial;mso-hansi-font-family:Arial;mso-bidi-font-family:&lt;br/&gt;PMingLiU;color:black;mso-ansi-language:EN-GB;mso-fareast-language:ZH-TW;&lt;br/&gt;mso-bidi-language:AR-SA&quot;&gt;包括悠遊卡（&lt;/span&gt;&lt;span style=&quot;font-size:10.5pt;&lt;br/&gt;font-family:&amp;quot;Arial&amp;quot;,sans-serif;mso-fareast-font-family:&amp;quot;Microsoft JhengHei&amp;quot;;&lt;br/&gt;mso-bidi-font-family:PMingLiU;color:black;mso-ansi-language:EN-GB;mso-fareast-language:&lt;br/&gt;ZH-TW;mso-bidi-language:AR-SA&quot; lang=&quot;EN-GB&quot;&gt;TSCC&lt;/span&gt;&lt;span style=&quot;font-size:10.5pt;&lt;br/&gt;font-family:&amp;quot;Microsoft JhengHei&amp;quot;,sans-serif;mso-ascii-font-family:Arial;&lt;br/&gt;mso-hansi-font-family:Arial;mso-bidi-font-family:PMingLiU;color:black;&lt;br/&gt;mso-ansi-language:EN-GB;mso-fareast-language:ZH-TW;mso-bidi-language:AR-SA&quot;&gt;）、一卡通（&lt;/span&gt;&lt;span style=&quot;font-size:10.5pt;font-family:&amp;quot;Arial&amp;quot;,sans-serif;mso-fareast-font-family:&lt;br/&gt;&amp;quot;Microsoft JhengHei&amp;quot;;mso-bidi-font-family:PMingLiU;color:black;mso-ansi-language:&lt;br/&gt;EN-GB;mso-fareast-language:ZH-TW;mso-bidi-language:AR-SA&quot; lang=&quot;EN-GB&quot;&gt;IPASS&lt;/span&gt;&lt;span style=&quot;font-size:10.5pt;font-family:&amp;quot;Microsoft JhengHei&amp;quot;,sans-serif;mso-ascii-font-family:&lt;br/&gt;Arial;mso-hansi-font-family:Arial;mso-bidi-font-family:PMingLiU;color:black;&lt;br/&gt;mso-ansi-language:EN-GB;mso-fareast-language:ZH-TW;mso-bidi-language:AR-SA&quot;&gt;）及愛金卡（&lt;/span&gt;&lt;span style=&quot;font-size:10.5pt;font-family:&amp;quot;Arial&amp;quot;,sans-serif;mso-fareast-font-family:&lt;br/&gt;&amp;quot;Microsoft JhengHei&amp;quot;;mso-bidi-font-family:PMingLiU;color:black;mso-ansi-language:&lt;br/&gt;EN-GB;mso-fareast-language:ZH-TW;mso-bidi-language:AR-SA&quot; lang=&quot;EN-GB&quot;&gt;ICASH&lt;/span&gt;&lt;span style=&quot;font-size:10.5pt;font-family:&amp;quot;Microsoft JhengHei&amp;quot;,sans-serif;mso-ascii-font-family:&lt;br/&gt;Arial;mso-hansi-font-family:Arial;mso-bidi-font-family:PMingLiU;color:black;&lt;br/&gt;mso-ansi-language:EN-GB;mso-fareast-language:ZH-TW;mso-bidi-language:AR-SA&quot;&gt;）&lt;/span&gt;&lt;br&gt;&lt;br&gt;&lt;br&gt;" style="rounded=1;whiteSpace=wrap;html=1;verticalAlign=top;align=left;" vertex="1" parent="1">
          <mxGeometry x="210" y="250" width="360" height="60" as="geometry" />
        </mxCell>
        <mxCell id="Ka3H7soA-u5DSd5FnXOm-3" value="P4-002_004" style="text;html=1;strokeColor=#001DBC;fillColor=#0050ef;align=center;verticalAlign=middle;whiteSpace=wrap;rounded=0;fontColor=#ffffff;" vertex="1" parent="1">
          <mxGeometry x="210" y="180" width="80" height="30" as="geometry" />
        </mxCell>
      </root>
    </mxGraphModel>
  </diagram>
</mxfile>
